<svg width="147" height="51" viewBox="0 0 147 51" fill="none" xmlns="http://www.w3.org/2000/svg">
<path d="M11.25 0.999997V2.05H2.85V24.8H9.85V25.85H2.85V50H0.4V0.999997H11.25ZM14.1402 50L19.6002 0.999997H20.5802L25.4102 50H22.9602L21.4902 33.9H16.8702L15.1202 50H14.1402ZM17.0102 32.85H21.4202L19.4602 11.08L17.0102 32.85ZM28.1555 4.99C28.1555 2.05 29.9055 0.579998 33.4055 0.579998C36.9522 0.579998 38.7255 2.12 38.7255 5.2V15H36.2755V5.27C36.2755 3.91666 36.0889 2.93666 35.7155 2.33C35.3422 1.67666 34.5955 1.35 33.4755 1.35C32.3555 1.35 31.5855 1.67666 31.1655 2.33C30.7922 2.93666 30.6055 3.91666 30.6055 5.27V13.67C30.6055 15.4433 30.8389 16.75 31.3055 17.59C31.9589 18.85 32.7522 19.9933 33.6855 21.02C34.6655 22.0467 35.4122 22.91 35.9255 23.61C36.4389 24.2633 36.9055 25.0333 37.3255 25.92C38.2589 27.88 38.7255 30.19 38.7255 32.85V45.94C38.7255 48.88 36.9522 50.35 33.4055 50.35C29.9055 50.35 28.1555 48.81 28.1555 45.73V36H30.6055V45.66C30.6055 47.0133 30.7922 48.0167 31.1655 48.67C31.5389 49.2767 32.2855 49.58 33.4055 49.58C34.5255 49.58 35.2722 49.2767 35.6455 48.67C36.0655 48.0167 36.2755 47.0133 36.2755 45.66V33.41C36.2755 30.75 36.0422 28.8833 35.5755 27.81C34.9222 26.2233 34.1055 24.8933 33.1255 23.82C32.1922 22.7467 31.4689 21.9067 30.9555 21.3C30.4422 20.6933 29.9755 20.04 29.5555 19.34C28.6222 17.7067 28.1555 15.9333 28.1555 14.02V4.99ZM41.5523 0.999997H52.6823V2.05H48.3423V50H45.8923V2.05H41.5523V0.999997ZM62.6087 4.99C62.6087 2.05 64.3587 0.579998 67.8587 0.579998C71.4053 0.579998 73.1787 2.12 73.1787 5.2V15H70.7287V5.27C70.7287 3.91666 70.542 2.93666 70.1687 2.33C69.7953 1.67666 69.0487 1.35 67.9287 1.35C66.8087 1.35 66.0387 1.67666 65.6187 2.33C65.2453 2.93666 65.0587 3.91666 65.0587 5.27V13.67C65.0587 15.4433 65.292 16.75 65.7587 17.59C66.412 18.85 67.2053 19.9933 68.1387 21.02C69.1187 22.0467 69.8653 22.91 70.3787 23.61C70.892 24.2633 71.3587 25.0333 71.7787 25.92C72.712 27.88 73.1787 30.19 73.1787 32.85V45.94C73.1787 48.88 71.4053 50.35 67.8587 50.35C64.3587 50.35 62.6087 48.81 62.6087 45.73V36H65.0587V45.66C65.0587 47.0133 65.2453 48.0167 65.6187 48.67C65.992 49.2767 66.7387 49.58 67.8587 49.58C68.9787 49.58 69.7253 49.2767 70.0987 48.67C70.5187 48.0167 70.7287 47.0133 70.7287 45.66V33.41C70.7287 30.75 70.4953 28.8833 70.0287 27.81C69.3753 26.2233 68.5587 24.8933 67.5787 23.82C66.6453 22.7467 65.922 21.9067 65.4087 21.3C64.8953 20.6933 64.4287 20.04 64.0087 19.34C63.0753 17.7067 62.6087 15.9333 62.6087 14.02V4.99ZM86.8555 0.999997V2.05H78.4555V23.33H85.4555V24.38H78.4555V48.95H86.8555V50H76.0055V0.999997H86.8555ZM95.6257 0.999997C98.7524 1.18666 100.316 2.63333 100.316 5.34V20.81C100.316 22.8633 99.5457 24.1933 98.0057 24.8C99.5457 25.4533 100.316 26.7133 100.316 28.58V50H97.8657V28.86C97.8657 27.6 97.679 26.7367 97.3057 26.27C96.9324 25.7567 96.279 25.4533 95.3457 25.36H92.1957V50H89.7457V0.999997H95.6257ZM92.1957 2.05V24.31H95.2057C96.3257 24.31 97.049 24.03 97.3757 23.47C97.7024 22.91 97.8657 21.9533 97.8657 20.6V5.55C97.8657 4.29 97.679 3.42666 97.3057 2.96C96.9324 2.44666 96.279 2.14333 95.3457 2.05H92.1957ZM114.483 0.999997L109.023 50H108.043L103.213 0.999997H105.663L109.163 39.99L113.503 0.999997H114.483ZM119.608 0.999997V50H117.158V0.999997H119.608ZM122.49 4.92C122.49 2.02666 124.24 0.579998 127.74 0.579998C131.287 0.579998 133.06 2.07333 133.06 5.06V15H130.61V5.34C130.61 3.94 130.447 2.98333 130.12 2.47C129.793 1.91 129.07 1.63 127.95 1.63C126.83 1.63 126.037 1.88666 125.57 2.4C125.15 2.86667 124.94 3.77667 124.94 5.13V45.66C124.94 47.0133 125.103 47.97 125.43 48.53C125.757 49.09 126.48 49.37 127.6 49.37C128.72 49.37 129.49 49.1133 129.91 48.6C130.377 48.0867 130.61 47.1533 130.61 45.8V36H133.06V46.01C133.06 48.9033 131.287 50.35 127.74 50.35C124.24 50.35 122.49 48.8567 122.49 45.87V4.92ZM146.807 0.999997V2.05H138.407V23.33H145.407V24.38H138.407V48.95H146.807V50H135.957V0.999997H146.807Z" fill="black" fill-opacity="0.53"/>
</svg>
