<svg width="202" height="69" viewBox="0 0 202 69" fill="none" xmlns="http://www.w3.org/2000/svg">
<path d="M15.8 0.799995V2.23999H4.28V33.44H13.88V34.88H4.28V68H0.92V0.799995H15.8ZM19.7638 68L27.2518 0.799995H28.5958L35.2198 68H31.8598L29.8438 45.92H23.5078L21.1078 68H19.7638ZM23.6998 44.48H29.7478L27.0598 14.624L23.6998 44.48ZM38.9848 6.272C38.9848 2.24 41.3848 0.223997 46.1848 0.223997C51.0488 0.223997 53.4808 2.336 53.4808 6.56V20H50.1208V6.65599C50.1208 4.8 49.8648 3.456 49.3528 2.62399C48.8408 1.72799 47.8168 1.27999 46.2808 1.27999C44.7448 1.27999 43.6888 1.72799 43.1128 2.62399C42.6008 3.456 42.3448 4.8 42.3448 6.65599V18.176C42.3448 20.608 42.6648 22.4 43.3047 23.552C44.2008 25.28 45.2888 26.848 46.5688 28.256C47.9128 29.664 48.9368 30.848 49.6407 31.808C50.3448 32.704 50.9848 33.76 51.5608 34.976C52.8408 37.664 53.4808 40.832 53.4808 44.48V62.432C53.4808 66.464 51.0488 68.48 46.1848 68.48C41.3848 68.48 38.9848 66.368 38.9848 62.144V48.8H42.3448V62.048C42.3448 63.904 42.6008 65.28 43.1128 66.176C43.6248 67.008 44.6488 67.424 46.1848 67.424C47.7208 67.424 48.7448 67.008 49.2568 66.176C49.8328 65.28 50.1208 63.904 50.1208 62.048V45.248C50.1208 41.6 49.8008 39.04 49.1608 37.568C48.2648 35.392 47.1448 33.568 45.8008 32.096C44.5208 30.624 43.5288 29.472 42.8248 28.64C42.1208 27.808 41.4808 26.912 40.9048 25.952C39.6248 23.712 38.9848 21.28 38.9848 18.656V6.272ZM57.3575 0.799995H72.6215V2.23999H66.6695V68H63.3095V2.23999H57.3575V0.799995ZM86.2348 6.272C86.2348 2.24 88.6348 0.223997 93.4348 0.223997C98.2988 0.223997 100.731 2.336 100.731 6.56V20H97.3708V6.65599C97.3708 4.8 97.1148 3.456 96.6028 2.62399C96.0908 1.72799 95.0668 1.27999 93.5308 1.27999C91.9948 1.27999 90.9388 1.72799 90.3628 2.62399C89.8508 3.456 89.5948 4.8 89.5948 6.65599V18.176C89.5948 20.608 89.9148 22.4 90.5547 23.552C91.4508 25.28 92.5388 26.848 93.8188 28.256C95.1628 29.664 96.1868 30.848 96.8907 31.808C97.5948 32.704 98.2348 33.76 98.8108 34.976C100.091 37.664 100.731 40.832 100.731 44.48V62.432C100.731 66.464 98.2988 68.48 93.4348 68.48C88.6348 68.48 86.2348 66.368 86.2348 62.144V48.8H89.5948V62.048C89.5948 63.904 89.8508 65.28 90.3628 66.176C90.8748 67.008 91.8988 67.424 93.4348 67.424C94.9708 67.424 95.9948 67.008 96.5068 66.176C97.0828 65.28 97.3708 63.904 97.3708 62.048V45.248C97.3708 41.6 97.0508 39.04 96.4108 37.568C95.5148 35.392 94.3948 33.568 93.0508 32.096C91.7708 30.624 90.7788 29.472 90.0748 28.64C89.3708 27.808 88.7308 26.912 88.1548 25.952C86.8748 23.712 86.2348 21.28 86.2348 18.656V6.272ZM119.488 0.799995V2.23999H107.968V31.424H117.568V32.864H107.968V66.56H119.488V68H104.608V0.799995H119.488ZM131.515 0.799995C135.803 1.056 137.947 3.04 137.947 6.752V27.968C137.947 30.784 136.891 32.608 134.779 33.44C136.891 34.336 137.947 36.064 137.947 38.624V68H134.587V39.008C134.587 37.28 134.331 36.096 133.819 35.456C133.307 34.752 132.411 34.336 131.131 34.208H126.811V68H123.451V0.799995H131.515ZM126.811 2.23999V32.768H130.939C132.475 32.768 133.467 32.384 133.915 31.616C134.363 30.848 134.587 29.536 134.587 27.68V7.04C134.587 5.31199 134.331 4.12799 133.819 3.488C133.307 2.784 132.411 2.368 131.131 2.23999H126.811ZM157.376 0.799995L149.888 68H148.544L141.92 0.799995H145.28L150.08 54.272L156.032 0.799995H157.376ZM164.405 0.799995V68H161.045V0.799995H164.405ZM168.358 6.17599C168.358 2.208 170.758 0.223997 175.558 0.223997C180.422 0.223997 182.854 2.272 182.854 6.368V20H179.494V6.752C179.494 4.832 179.27 3.52 178.822 2.816C178.374 2.048 177.382 1.664 175.846 1.664C174.31 1.664 173.222 2.016 172.582 2.72C172.006 3.36 171.718 4.608 171.718 6.464V62.048C171.718 63.904 171.942 65.216 172.39 65.984C172.838 66.752 173.83 67.136 175.366 67.136C176.902 67.136 177.958 66.784 178.534 66.08C179.174 65.376 179.494 64.096 179.494 62.24V48.8H182.854V62.528C182.854 66.496 180.422 68.48 175.558 68.48C170.758 68.48 168.358 66.432 168.358 62.336V6.17599ZM201.706 0.799995V2.23999H190.186V31.424H199.786V32.864H190.186V66.56H201.706V68H186.826V0.799995H201.706Z" fill="black" fill-opacity="0.53"/>
</svg>
